# xmcd
#
# Track frame offsets:
#       150
#       28635
#       50104
#
# Disc length: 1042 seconds
#
# Revision: 0
# Processed by: cddbd v1.5.1PL0 Copyright (c) Steve Scherf et al.
# Submitted via: WaveLab 4.01
#
DISCID=22041003
DTITLE=Alethia - (DEMO)
DYEAR=2004
DGENRE=Progressive Blues
TTITLE0=I'm Waiting
TTITLE1=The Hardest Thing
TTITLE2=Never Break Me
EXTD=
EXTT0=
EXTT1=
EXTT2=
PLAYORDER=
